# xmcd
#
# Track frame offsets:
#	150
#	16082
#	30954
#	56723
#	73974
#	86680
#	101808
#	118501
#	129632
#	141942
#	153095
#
# Disc length: 2222 seconds
# Revision: 0
# Processed by: cddbd v1.5.2PL0 Copyright (c) Steve Scherf et al.
# Submitted via: dBpowerAMP V12.0
#
DISCID=9008ac0b
DTITLE=Fried Okra Band - Into the River
DYEAR=2015
DGENRE=Blues
TTITLE0=Flatland Groove
TTITLE1=Don't Go North
TTITLE2=Never Felt Lost
TTITLE3=Who is it For
TTITLE4=My Kind of Woman
TTITLE5=I Can´t Help You Out
TTITLE6=Stay No More
TTITLE7=Whitest Boy in Town
TTITLE8=Ten Times Man
TTITLE9=Wacky Shack
TTITLE10=What´s Wrong
EXTD=
EXTT0=
EXTT1=
EXTT2=
EXTT3=
EXTT4=
EXTT5=
EXTT6=
EXTT7=
EXTT8=
EXTT9=
EXTT10=
PLAYORDER=
